<svg preserveAspectRatio="none" width="100%" height="100%" overflow="visible" style="display: block;" viewBox="0 0 67 67" fill="none" xmlns="http://www.w3.org/2000/svg">
<g id="free-icon-rontgen-17088119 1 [Vectorized]" filter="url(#filter0_f_0_99)">
<path id="Vector" d="M22.9529 16.7789C24.2334 16.7167 25.8102 16.7609 27.1222 16.7606L34.8197 16.7581L40.6811 16.7575C44.0128 16.7578 46.8468 16.3371 48.0478 20.1976C50.3336 20.4229 52.1452 19.8405 53.8612 21.8702C54.3477 22.456 54.669 23.161 54.792 23.9125C54.905 24.5819 54.8728 25.9315 54.8735 26.6614L54.876 31.1926L54.8751 37.2845C54.8744 38.4803 54.8927 39.6556 54.8257 40.8533C54.7074 42.9691 52.8892 44.7287 50.7801 44.8457C48.6592 44.9635 46.4907 44.8473 44.3632 44.8985C43.6928 44.9147 42.9594 44.9483 42.2938 44.885C42.1821 49.2616 42.3481 53.6998 42.281 58.0818C42.2623 59.3064 42.3013 60.0486 41.742 61.1801C40.0487 64.3324 36.3285 63.3885 33.3377 63.5282C31.7373 63.6029 29.7879 63.5966 28.2009 63.3486C26.7806 63.1266 25.2921 61.6362 24.9871 60.23C24.7271 58.7896 24.8828 57.0062 24.8498 55.5159C24.7721 52.0065 24.9642 48.4179 24.8286 44.9146C24.7546 44.9183 24.6805 44.9203 24.6064 44.9205L20.1307 44.8927C17.139 44.8938 13.3347 45.3767 12.301 41.7099C11.9698 40.5349 12.1191 37.1952 12.1187 35.8619L12.1207 25.7795C12.1235 24.0022 12.1511 22.8451 13.4833 21.4835C14.9203 20.015 16.9922 20.2506 18.9177 20.2547C19.4477 18.1714 20.8665 17.0392 22.9529 16.7789ZM24.8551 39.599C24.8467 38.6381 24.6424 35.4522 25.2032 35.0738C27.0208 33.8475 26.5961 38.1307 26.5964 38.4294C26.6029 39.9764 26.6002 41.5234 26.5882 43.0703C31.259 43.1519 35.8786 43.0451 40.5229 43.0745C40.5394 41.1843 40.5454 39.2941 40.5411 37.4039C40.5361 37.1057 40.208 33.9461 41.9669 35.164C42.4648 35.5088 42.301 38.6139 42.2606 39.5553C44.6666 39.6496 46.29 39.4107 46.3744 36.5373C46.5151 31.7479 46.2236 26.8411 46.387 22.0653C44.1211 21.9977 41.7172 22.0339 39.4438 22.0339L27.8248 22.0362L23.1832 22.0388C22.4865 22.0401 21.2839 22.0775 20.624 22.0225L20.6158 32.3612C20.6151 33.4472 20.6024 34.5421 20.6064 35.6199C20.6107 36.8267 20.4894 37.9286 21.4213 38.8484C22.3305 39.7458 23.6903 39.599 24.8551 39.599ZM32.5924 61.7387C32.6234 58.9969 32.6323 56.2548 32.6189 53.5129C32.6185 52.1618 32.5422 50.7576 32.6493 49.4113C32.6686 49.169 32.6807 48.8425 32.8583 48.6577C33.0312 48.4777 33.3033 48.4029 33.5471 48.4143C33.7694 48.4247 34.0001 48.5081 34.1479 48.6808C34.5435 49.1433 34.3543 53.7563 34.3578 54.6037L34.3616 59.1649C34.362 59.9321 34.3908 60.9439 34.3438 61.695C37.5859 61.7534 40.5302 62.4794 40.5472 58.1722L40.5458 49.7687C40.5446 48.2793 40.5942 46.3825 40.5202 44.9202C37.3001 44.8856 34.0798 44.874 30.8594 44.8856C30.0418 44.8865 27.2286 44.9692 26.6195 44.8762C26.4988 47.8344 26.5827 51.3217 26.5831 54.3123L26.5846 57.5158C26.5851 58.0901 26.5587 58.9991 26.6413 59.5359C26.7193 60.0238 26.9384 60.4782 27.2717 60.8429C28.4548 62.1444 30.9284 61.6539 32.5924 61.7387ZM23.1428 18.5501C21.8002 18.6693 21.3952 19.1613 20.7323 20.2646L43.9846 20.2598C44.7191 20.2599 45.5151 20.2445 46.2444 20.275C45.8177 19.498 45.4043 18.9097 44.5059 18.649C43.5624 18.3752 38.5836 18.5217 37.1413 18.5215C32.4831 18.5207 27.7979 18.4201 23.1428 18.5501ZM18.8662 22.0609C18.1202 22.0412 16.9472 21.9911 16.2222 22.0748C15.111 22.2274 14.0826 22.9901 13.9548 24.167C13.83 25.3166 13.8775 26.5487 13.8768 27.7106L13.8751 33.5009L13.8762 38.2857C13.8768 39.5073 13.6823 41.003 14.3917 42.0147C15.3336 43.3577 17.2018 43.1147 18.6346 43.1119L22.6054 43.1037L24.8305 43.077L24.8627 41.3855C23.0207 41.3513 21.5029 41.4497 20.1039 40.0192C19.6441 39.5491 19.0731 38.6451 18.9944 38.017C18.7758 36.271 18.8476 34.0406 18.8572 32.2714C18.8755 28.8726 18.8183 25.4454 18.8662 22.0609ZM48.1502 22.0184L48.1487 32.4023C48.1491 34.1848 48.239 36.2208 48.0023 37.9823C47.9084 38.6807 47.3041 39.6046 46.8121 40.0861C45.4367 41.4176 44.0639 41.3823 42.2696 41.3725C42.2811 41.9445 42.2933 42.4973 42.2782 43.0702C43.9428 43.1023 45.6076 43.1135 47.2724 43.104C48.7548 43.113 51.3121 43.386 52.2963 42.3636C53.2195 41.4046 53.1264 40.4178 53.1289 39.2174L53.1304 29.0585C53.1297 27.5165 53.1827 25.769 53.0611 24.2542C52.9532 22.9104 51.6058 22.0092 50.3539 22.0395C49.6428 22.0131 48.8353 22.0817 48.1502 22.0184Z" fill="#156B6A"/>
<path id="Vector_2" d="M33.2313 23.8133L33.2635 23.8131C34.4608 23.8073 34.3769 24.5087 34.3798 25.4777C35.0418 25.5139 37.6729 25.3642 37.9986 25.8512C39.2667 27.7476 35.2836 27.3418 34.3684 27.3367C34.4017 27.8775 34.372 28.4713 34.3522 29.0157C35.4072 29.0647 40.0693 28.844 40.6057 29.321C40.7615 29.4595 40.8508 29.6322 40.8556 29.8427C40.8614 30.0942 40.7732 30.3651 40.5908 30.5431C40.4594 30.6714 40.3022 30.7457 40.1225 30.7777C39.1803 30.9458 38.0696 30.8261 37.1092 30.8244C36.1981 30.8228 35.2883 30.8779 34.3774 30.8601C34.3941 31.3698 34.3708 31.9907 34.3649 32.5087C35.0018 32.5436 37.7412 32.4185 38.0218 32.867C39.2212 34.7839 35.2974 34.3768 34.3857 34.3285C34.4118 34.726 34.3853 35.3444 34.3796 35.7579C35.4214 35.3494 36.4164 35.0854 37.466 35.6847C38.0714 36.023 38.5132 36.593 38.6897 37.2637C38.8637 37.9412 38.7588 38.6603 38.3983 39.2598C37.7476 40.3435 35.3323 41.2625 34.0953 41.5595C32.8094 41.7515 31.6652 41.0461 30.5031 40.6097C30.1542 40.4787 29.7241 40.2773 29.4243 40.0613C29.0979 39.8291 28.8295 39.5248 28.64 39.172C28.3146 38.5493 28.2517 37.8224 28.4653 37.1532C29.1029 35.1066 30.9598 35.1442 32.6418 35.7021C32.6 35.2077 32.6157 34.8467 32.6343 34.3486C31.9781 34.3266 29.3361 34.5193 29.0009 34.0184C27.7166 32.0999 31.6445 32.5416 32.6103 32.5376C32.582 32.0594 32.6087 31.36 32.6128 30.8656C31.4524 30.8292 30.2912 30.8178 29.1302 30.8315C28.414 30.8342 27.7407 30.8339 27.0215 30.8001C25.8218 30.7437 25.8893 29.2061 26.9307 29.0865C27.5712 29.013 28.2821 29.0409 28.9361 29.0418L32.5924 29.0494C32.5877 28.4816 32.5896 27.9137 32.5984 27.3459C31.9909 27.3433 29.3251 27.4611 29.0158 27.0091C27.6917 25.0738 31.6459 25.5089 32.5833 25.5077C32.5807 24.7584 32.5339 24.2079 33.2313 23.8133ZM36.1349 38.8906C36.9204 38.5638 37.4667 37.814 36.5163 37.1747C35.9618 36.8017 34.2024 37.9675 33.5189 37.8874C32.6089 37.8603 31.6472 37.0337 30.7071 37.0926C30.2788 37.3641 29.8541 37.8933 30.2508 38.3483C30.8945 39.0869 32.3903 39.4841 33.3245 39.7757C33.8938 39.9325 35.53 39.1427 36.1349 38.8906Z" fill="#156B6A"/>
<path id="Vector_3" d="M22.9687 23.8233C23.1017 23.8145 23.2352 23.816 23.368 23.8277C23.8151 23.8672 24.0945 24.1945 24.0993 24.6431C24.1305 27.6394 24.1759 30.6564 24.0761 33.6498C24.0673 33.9125 23.7576 34.147 23.5586 34.2799C22.8875 34.3077 22.4334 34.2206 22.4175 33.4202C22.3582 30.4263 22.2848 27.3613 22.449 24.3772C22.4623 24.1347 22.7866 23.9244 22.9687 23.8233Z" fill="#156B6A"/>
<path id="Vector_4" d="M43.4332 23.8262C44.3925 23.7768 44.5914 24.0747 44.6048 25.0015C44.6397 27.406 44.6139 29.8129 44.6191 32.2178C44.6203 32.7629 44.7001 33.5801 44.3739 34.0298C44.3248 34.0967 44.1059 34.2352 44.0253 34.2855C43.0634 34.3776 42.9134 33.9792 42.8979 33.1089C42.8571 30.8073 42.8861 28.5037 42.8785 26.2015C42.8765 25.6062 42.8633 24.993 42.9377 24.403C42.9729 24.1239 43.2226 23.9706 43.4332 23.8262Z" fill="#156B6A"/>
<path id="Vector_5" d="M32.8701 3.57128C36.02 3.19368 38.8804 5.43905 39.2617 8.58852C39.6429 11.738 37.4008 14.601 34.2518 14.9859C31.0976 15.3714 28.2289 13.1249 27.847 9.9702C27.4652 6.81557 29.715 3.94949 32.8701 3.57128ZM33.8605 13.2539C36.0633 13.0838 37.7076 11.1545 37.5264 8.95257C37.3452 6.7506 35.4076 5.11605 33.2066 5.30833C31.0212 5.49925 29.4008 7.42008 29.5807 9.60641C29.7606 11.7927 31.6733 13.4229 33.8605 13.2539Z" fill="#156B6A"/>
</g>
<defs>
<filter id="filter0_f_0_99" x="-2.5" y="-2.5" width="72" height="72" filterUnits="userSpaceOnUse" color-interpolation-filters="sRGB">
<feFlood flood-opacity="0" result="BackgroundImageFix"/>
<feBlend mode="normal" in="SourceGraphic" in2="BackgroundImageFix" result="shape"/>
<feGaussianBlur stdDeviation="1.25" result="effect1_foregroundBlur_0_99"/>
</filter>
</defs>
</svg>
