<svg preserveAspectRatio="none" width="100%" height="100%" overflow="visible" style="display: block;" viewBox="0 0 72 72" fill="none" xmlns="http://www.w3.org/2000/svg">
<g id="free-icon-blood-sample-5560046 1 [Vectorized]" filter="url(#filter0_f_0_82)">
<g clip-path="url(#clip0_0_82)">
<path id="Vector" d="M13.8475 2.5H32.4039C35.4558 3.94914 34.2077 6.23556 34.4124 9.07837C34.4948 10.2221 33.5696 10.9963 32.6423 11.5137C32.5439 12.563 32.6005 14.3707 32.6012 15.4735L32.6062 22.6908C35.1575 22.7112 38.3203 22.6009 40.7948 22.7224C40.7234 21.5818 40.7739 20.0655 40.7758 18.8824L40.773 11.4908C38.7665 10.6579 38.8979 9.18659 38.939 7.33406C38.9731 5.79766 38.6 3.75419 40.1948 2.88195C40.4168 2.76054 40.7148 2.63167 40.9184 2.5H59.4712C61.5888 3.66402 61.465 4.0676 61.4728 6.38528C61.4805 8.71396 61.9505 11.5682 58.5719 11.604C55.1768 11.6399 51.7247 11.6045 48.3041 11.6085L44.8612 11.6152C44.2615 11.6176 43.3531 11.6643 42.7904 11.5644C42.6253 13.8589 42.8422 16.4667 42.7337 18.7628C44.3442 18.8241 45.9656 18.7822 47.5773 18.7955C50.9434 18.8232 54.3422 18.7567 57.7051 18.7943C57.6945 17.7178 57.1969 13.977 58.8043 14.2862C59.2143 14.3651 59.361 14.538 59.5951 14.8567C59.7247 17.0531 59.5991 19.3306 59.6428 21.5348C59.65 21.8953 59.6505 22.2995 59.6228 22.6582C61.7456 22.7615 63.9194 22.6687 66.048 22.6977C67.9493 22.7235 68.7207 23.1675 69.5 24.9457V67.2119C69.0708 68.1338 68.8431 68.6174 67.905 69.1578C67.713 69.2684 67.3605 69.4058 67.2071 69.5H4.80057C3.31433 68.7227 3.34826 68.8411 2.5 67.3268V24.8792C2.81661 24.4008 2.97617 23.8562 3.43385 23.4296C4.51629 22.4204 6.70473 22.6939 8.12825 22.6961L13.7465 22.7112C13.7081 20.1762 13.7777 17.595 13.7483 15.0562C13.7349 13.9003 13.7779 12.6659 13.7161 11.5172C12.7264 11.0044 11.9492 10.4329 11.937 9.18482C11.9212 7.57047 11.769 5.81904 12.0585 4.2327C12.2237 3.32749 13.1522 2.90488 13.8475 2.5ZM8.1373 63.7684C9.27819 63.8119 11.3702 63.6594 12.3522 63.8398C12.6516 63.8948 12.965 63.9966 13.1747 64.2296C13.3198 64.3908 13.3765 64.5805 13.3565 64.7946C13.3309 65.0673 13.1932 65.3612 12.9805 65.5376C12.4821 65.9512 8.4622 65.7803 7.55079 65.8312C6.97338 66.3401 6.40077 66.9509 5.85962 67.5049C10.1065 67.4507 14.4482 67.4963 18.7006 67.4964L42.7912 67.4958L57.9776 67.4953C60.5723 67.4951 63.6154 67.4146 66.1719 67.5244C65.767 67.1343 64.8133 66.1359 64.4354 65.8353C63.3003 65.7199 61.2998 65.7764 60.0853 65.7763L52.2621 65.7774L26.946 65.7765L20.3448 65.7818C19.2442 65.7831 18.1283 65.805 17.0541 65.7606C16.0074 65.7173 15.8147 64.5017 16.4154 64.0363C16.9188 63.6462 19.0557 63.8061 19.7357 63.8059L25.341 63.8024L42.4287 63.8011L56.5804 63.8009C58.7722 63.8009 61.6858 63.7163 63.8421 63.8163C63.7713 62.3025 63.8309 60.443 63.8318 58.8904L63.8328 49.587L63.8327 35.6607C63.8326 33.282 63.7936 30.7734 63.8388 28.4039C62.5532 28.3848 60.8587 28.4526 59.6378 28.3999L59.6358 37.7993L59.6402 46.4756C59.6428 50.8693 60.2838 54.7824 56.882 58.1915C55.1237 59.9683 52.7306 60.9723 50.231 60.9818C47.7298 60.9706 45.333 59.9781 43.5561 58.218C40.6897 55.3464 40.7799 52.6884 40.7798 48.9478L40.7799 44.387L40.7841 28.4048C34.8011 28.3144 28.6543 28.3823 22.6605 28.3837L17.8948 28.3859C17.1964 28.3876 16.3755 28.427 15.6968 28.3999L15.6963 44.9745L15.6935 49.3132C15.6917 50.4903 15.6387 51.9433 15.8674 53.0734C16.1623 54.4846 16.8612 55.7796 17.8792 56.8006C19.2812 58.2055 21.1867 58.9916 23.1715 58.9839C25.1542 58.9819 27.0543 58.1901 28.4517 56.7837C29.4382 55.7956 30.124 54.5476 30.4293 53.1851C30.7504 51.766 30.6324 48.0136 30.6302 46.355L30.6308 35.4723C30.627 34.4379 30.4919 32.2437 30.8408 31.3775C31.6623 30.8693 32.5473 30.9972 32.5628 32.1027C32.6554 38.679 32.5991 45.2684 32.5829 51.8469C32.581 52.6133 32.4196 53.5473 32.1926 54.28C31.4352 56.7107 29.7413 58.7397 27.4848 59.9189C25.2853 61.072 22.7155 61.2962 20.3495 60.5413C17.9616 59.7872 15.9679 58.1213 14.8014 55.9054C14.2844 54.9239 13.9526 53.8556 13.8225 52.7539C13.7075 51.7699 13.7433 50.4462 13.7434 49.4274L13.7466 44.3293L13.7504 28.4058L8.16068 28.3945L8.16521 52.26L8.16551 59.8334C8.1656 60.8985 8.22569 62.7687 8.1373 63.7684ZM55.5813 56.6955C57.5974 54.513 57.6954 52.728 57.7151 49.9234C56.2895 49.898 54.8636 49.8928 53.4379 49.9077C52.4105 49.91 50.8919 50.0117 49.9299 49.7372C47.5915 49.0701 47.8354 46.7688 47.8454 44.9634L47.8545 41.4973L47.8523 28.4052C46.4238 28.3841 44.0457 28.4738 42.751 28.3789L42.7395 44.6705L42.7406 49.1218C42.7411 50.4072 42.6598 51.9386 42.9442 53.1813C44.2763 59.0013 51.4583 60.9372 55.5813 56.6955ZM57.2156 47.8984C57.4817 47.8957 57.4993 47.9416 57.6697 47.811C57.7225 47.4266 57.7012 46.2882 57.7022 45.8504L57.7045 41.9977L57.7064 28.4082C55.448 28.3772 52.7319 28.3134 50.5004 28.4224C50.2768 28.5386 49.9217 28.7774 49.9024 29.0257C49.7334 31.2003 49.8075 34.1517 49.8077 36.2828L49.8097 42.9161C49.8101 44.1969 49.6783 46.2383 50.0199 47.5107C50.0555 47.6435 50.5128 47.8221 50.6404 47.8354C52.579 47.97 55.2893 47.9502 57.2156 47.8984ZM15.7083 11.6255C15.6934 13.1692 15.6899 14.713 15.6978 16.2567C15.699 16.9325 15.7339 18.1178 15.6797 18.7474C17.3552 18.8333 19.2325 18.7956 20.9245 18.7955L29.2935 18.7937L30.6385 18.7989C30.5873 16.4259 30.6416 13.9965 30.6208 11.6153L21.8891 11.6098C20.3635 11.6099 18.6955 11.5769 17.1786 11.6238C16.6637 11.644 16.2217 11.6692 15.7083 11.6255ZM7.54484 26.329C8.21469 26.4386 9.54259 26.4051 10.2568 26.404L14.5531 26.3965L29.6463 26.3992L52.9773 26.399L60.308 26.4006C61.4922 26.4007 63.335 26.4526 64.4596 26.3523C64.7134 26.0985 65.0031 25.7946 65.2624 25.5542L66.1266 24.6724C62.7056 24.7691 58.9304 24.6871 55.4792 24.686L35.5482 24.6847L15.8898 24.6871C12.7214 24.6867 9.0713 24.7674 5.93232 24.6753C6.19994 25.0521 7.18728 26.0182 7.54484 26.329ZM17.8417 9.56706C18.5527 9.57825 19.4131 9.57046 20.1119 9.60952C20.0015 8.43689 20.1022 5.83493 20.0861 4.54811C19.4918 4.56319 18.4843 4.61749 17.93 4.52736C17.7581 5.23522 17.916 8.4984 17.8417 9.56706ZM30.4059 9.567C30.859 9.57897 31.9294 9.64204 32.3015 9.48926C32.5264 8.88953 32.5699 5.30347 32.3302 4.7271C32.0764 4.43652 30.9313 4.60981 30.491 4.52216C30.318 5.35153 30.4776 8.41144 30.4059 9.567ZM28.4618 4.54958C27.8388 4.56425 26.8981 4.61747 26.3071 4.52642C26.1284 5.30706 26.2945 8.44934 26.2172 9.56804C26.8846 9.57799 27.7926 9.56588 28.4413 9.60867C28.5498 8.5951 28.4673 5.67351 28.4618 4.54958ZM44.9087 9.57858L47.1408 9.59493C47.0782 7.95653 47.1435 6.21804 47.1193 4.56305C46.5852 4.57741 45.4073 4.64738 44.9424 4.5094C44.849 6.09508 44.9312 7.96476 44.9087 9.57858ZM22.1192 4.52708C21.9466 5.22181 22.1027 8.50646 22.0281 9.56785C22.7383 9.57877 23.6026 9.5704 24.3004 9.60959C24.1891 8.42372 24.2907 5.85147 24.2743 4.5483C23.679 4.56339 22.6746 4.61772 22.1192 4.52708ZM49.0966 9.57838L51.3283 9.59493C51.2656 7.95632 51.3312 6.21824 51.3068 4.56306C50.7735 4.57746 49.5941 4.64783 49.1304 4.50904C49.0392 6.11251 49.119 7.95039 49.0966 9.57838ZM55.5157 9.59467C55.4556 7.95067 55.5179 6.22065 55.4946 4.56235C54.9601 4.57697 53.7824 4.64767 53.3172 4.5092C53.2278 6.1179 53.3065 7.94667 53.2841 9.57858L55.5157 9.59467ZM57.4726 9.57799C57.8985 9.58473 59.0576 9.64872 59.3733 9.46911C59.7106 8.47364 59.4755 6.73048 59.5442 5.64583C59.6449 4.0573 58.5102 4.74371 57.506 4.50339C57.4168 6.08549 57.4873 7.96795 57.4726 9.57799ZM41.0792 4.6015C40.8165 5.23342 40.8298 8.81497 41.043 9.35945C41.3879 9.66579 42.3857 9.59376 42.8684 9.59605C43.0029 9.4169 42.9358 5.11108 42.9329 4.56114C42.3357 4.57344 41.6702 4.57194 41.0792 4.6015ZM30.6412 22.7058C30.6251 22.071 30.6227 21.4359 30.634 20.801C26.2425 20.7216 21.3373 20.7065 16.944 20.7849C16.5188 20.8019 16.1216 20.8224 15.6957 20.8039C15.7006 21.4242 15.7143 22.0438 15.6686 22.6626C17.4078 22.738 19.2711 22.7054 21.0203 22.7052L29.4734 22.7028L30.6412 22.7058ZM15.6796 4.56059C15.4673 4.56131 14.0975 4.52745 14.0519 4.68228C13.6668 5.98927 13.884 7.72187 13.9138 9.10617C13.9182 9.31346 14.0983 9.49456 14.277 9.55554C14.8262 9.56778 15.3752 9.58767 15.9239 9.61522C15.8094 8.25048 15.9736 6.09105 15.8861 4.66828C15.848 4.62723 15.8157 4.59245 15.7892 4.56397L15.6796 4.56059ZM42.8182 20.7738C42.7017 21.0453 42.7474 22.266 42.7289 22.6701C46.9585 22.8514 51.3239 22.6027 55.5661 22.7059C56.2515 22.7225 57.036 22.725 57.7187 22.6873C57.667 22.0322 57.7366 21.3984 57.6952 20.8051C54.2022 20.7608 50.7089 20.7495 47.2158 20.7708L44.3702 20.7776C43.9799 20.7805 43.1776 20.8124 42.8182 20.7738ZM4.46567 66.0246C4.82171 65.7705 5.07271 65.5036 5.38101 65.1958C5.59488 64.9725 5.9822 64.5879 6.1576 64.3606C6.26344 62.2442 6.20109 59.6653 6.20129 57.5187L6.20158 45.5105L6.20047 34.0683C6.20013 32.1751 6.26817 29.6945 6.16924 27.8363C5.92593 27.4701 4.81675 26.3156 4.45683 26.1496C4.55093 30.3918 4.46076 35.0017 4.46055 39.2664L4.46567 66.0246ZM67.4519 26.1783C66.9817 26.6078 66.1845 27.32 65.842 27.8175C65.7506 29.5092 65.8047 31.5922 65.8045 33.3127L65.8039 42.9051L65.8048 56.451C65.8051 59.061 65.7691 61.7913 65.8321 64.3937L66.7096 65.2877L67.5427 66.0771C67.472 62.8286 67.5283 59.3694 67.5283 56.0995L67.5289 37.3773L67.5293 30.0131C67.5293 29.5567 67.5846 26.3489 67.4519 26.1783Z" fill="#156B6A"/>
<path id="Vector_2" d="M23.1159 34.1781C23.3395 34.1713 23.7193 34.1825 23.8781 34.338C25.1106 35.5444 27.2098 39.0432 27.4524 40.6146C27.6039 41.641 27.3407 42.6854 26.7209 43.5174C25.9151 44.6154 24.9458 45.052 23.6366 45.2504C23.0913 45.274 22.4424 45.1711 21.9301 44.9831C20.9001 44.6106 20.0599 43.8448 19.5938 42.8536C19.1026 41.7876 19.1546 40.7034 19.55 39.6281C19.9719 38.4811 22.0954 34.6517 23.1159 34.1781ZM23.5132 43.2806C24.8479 42.9885 25.7193 42.1847 25.4392 40.6722C25.3196 40.0262 23.8208 37.1598 23.2982 36.8857C22.576 38.0758 21.5428 39.4671 21.2621 40.8204C20.9526 42.3131 22.1357 43.2365 23.5132 43.2806Z" fill="#156B6A"/>
<path id="Vector_3" d="M53.5519 34.1795C53.731 34.1807 53.9108 34.185 54.0821 34.2426C54.2831 34.3101 54.4949 34.4225 54.5869 34.6248C54.8504 35.204 54.7904 43.0672 54.7151 44.1493C54.7016 44.3445 54.6687 44.514 54.5917 44.6936C54.4507 45.0223 54.2119 45.125 53.8942 45.2502C53.6913 45.2463 53.4744 45.2053 53.2846 45.1327C53.1108 45.0662 52.9629 44.9188 52.8916 44.7477C52.6531 44.1752 52.6838 35.1412 52.91 34.6505C53.0393 34.3701 53.2834 34.2849 53.5519 34.1795Z" fill="#156B6A"/>
</g>
</g>
<defs>
<filter id="filter0_f_0_82" x="0" y="0" width="72" height="72" filterUnits="userSpaceOnUse" color-interpolation-filters="sRGB">
<feFlood flood-opacity="0" result="BackgroundImageFix"/>
<feBlend mode="normal" in="SourceGraphic" in2="BackgroundImageFix" result="shape"/>
<feGaussianBlur stdDeviation="1.25" result="effect1_foregroundBlur_0_82"/>
</filter>
<clipPath id="clip0_0_82">
<rect width="67" height="67" fill="white" transform="translate(2.5 2.5)"/>
</clipPath>
</defs>
</svg>
