<svg width="56" height="56" viewBox="0 0 56 56" fill="none" xmlns="http://www.w3.org/2000/svg" aria-hidden="true">
  <path fill-rule="evenodd" clip-rule="evenodd" d="M21 7C21 6.0335 21.7835 5.25 22.75 5.25H30.051C31.443 5.25021 32.7778 5.80315 33.7621 6.78727L33.7623 6.78741L49.2127 22.2379C50.1968 23.2222 50.7498 24.5571 50.75 25.949V47.25C50.75 49.1065 50.0125 50.887 48.6997 52.1997C47.387 53.5125 45.6065 54.25 43.75 54.25H21C19.1435 54.25 17.363 53.5125 16.0503 52.1997C14.7375 50.887 14 49.1065 14 47.25V33.25C14 32.2835 14.7835 31.5 15.75 31.5C16.7165 31.5 17.5 32.2835 17.5 33.25V47.25C17.5 48.1783 17.8687 49.0685 18.5251 49.7249C19.1815 50.3812 20.0717 50.75 21 50.75H43.75C44.6783 50.75 45.5685 50.3812 46.2249 49.7249C46.8812 49.0685 47.25 48.1783 47.25 47.25V25.9495C47.25 25.9494 47.25 25.9493 47.25 25.9492C47.2499 25.4854 47.0656 25.0406 46.7377 24.7126C46.7377 24.7125 46.7376 24.7125 46.7376 24.7125L31.2875 9.26242C30.9595 8.93445 30.5147 8.75014 30.0508 8.75C30.0507 8.75 30.0506 8.75 30.0505 8.75H22.75C21.7835 8.75 21 7.9665 21 7Z" fill="currentColor" />
  <path fill-rule="evenodd" clip-rule="evenodd" d="M31.5 6.125C32.4665 6.125 33.25 6.9085 33.25 7.875V21C33.25 21.4641 33.4344 21.9092 33.7626 22.2374C34.0908 22.5656 34.5359 22.75 35 22.75H48.125C49.0915 22.75 49.875 23.5335 49.875 24.5C49.875 25.4665 49.0915 26.25 48.125 26.25H35C33.6076 26.25 32.2723 25.6969 31.2877 24.7123C30.3031 23.7277 29.75 22.3924 29.75 21V7.875C29.75 6.9085 30.5335 6.125 31.5 6.125Z" fill="currentColor" />
  <path fill-rule="evenodd" clip-rule="evenodd" d="M14.957 6.39531C14.3753 7.12871 14 8.24682 14 9.625V25.375C14 25.6872 14.1133 25.8803 14.2548 26.0104C14.418 26.1605 14.6493 26.25 14.875 26.25H14.8865L14.8981 26.2502C15.0104 26.2516 15.1218 26.2306 15.2259 26.1883C15.3299 26.146 15.4245 26.0833 15.5039 26.0039C15.5833 25.9245 15.646 25.8299 15.6883 25.7259C15.7306 25.6218 15.7516 25.5104 15.7502 25.3981L15.75 25.3865V8.75C15.75 7.7835 16.5335 7 17.5 7C18.4665 7 19.25 7.7835 19.25 8.75V25.365C19.2559 25.9402 19.1473 26.5109 18.9306 27.0439C18.7123 27.581 18.3887 28.0688 17.9787 28.4787C17.5688 28.8887 17.081 29.2123 16.5439 29.4306C16.0105 29.6475 15.4392 29.7561 14.8634 29.75C12.7292 29.7441 10.5 28.1017 10.5 25.375V9.625C10.5 7.6574 11.0309 5.71301 12.2148 4.22036C13.4352 2.6816 15.2562 1.75 17.5 1.75C19.7284 1.75 21.5497 2.65263 22.7771 4.17671C23.9684 5.65604 24.5 7.58915 24.5 9.55719V24.733C24.5 30.1963 20.8678 35 14.875 35C8.88233 35 5.25 30.1976 5.25 24.733V15.75C5.25 14.7835 6.0335 14 7 14C7.9665 14 8.75 14.7835 8.75 15.75V24.733C8.75 28.6768 11.2033 31.5 14.875 31.5C18.5466 31.5 21 28.6759 21 24.733V9.55719C21 8.18053 20.6254 7.08506 20.0511 6.37196C19.5129 5.70362 18.7092 5.25 17.5 5.25C16.3061 5.25 15.5021 5.70801 14.957 6.39531Z" fill="currentColor" />
</svg>
