<svg preserveAspectRatio="none" width="100%" height="100%" overflow="visible" style="display: block;" viewBox="0 0 68 68" fill="none" xmlns="http://www.w3.org/2000/svg">
<g id="free-icon-medical-doctor-2968817 1 [Vectorized]" filter="url(#filter0_f_0_123)">
<path id="Vector" d="M25.0859 3.40989C26.2272 3.3548 27.5459 3.38552 28.6979 3.38617L34.9462 3.38852L39.909 3.38433C41.0236 3.38367 42.9674 3.32271 43.9862 3.57208C45.4419 3.92998 46.6954 4.8524 47.4701 6.13578C47.8575 6.7646 48.1034 7.47024 48.1907 8.20369C48.3019 9.09267 48.2726 10.1258 48.2726 11.0343L48.2771 14.9021L48.2762 21.8361C48.2707 24.1312 48.4043 26.6173 47.845 28.826C46.8288 32.8396 44.5024 35.92 40.9921 38.0548C39.1712 39.0698 37.5624 39.6536 35.4716 39.8677C31.7227 40.2604 27.9738 39.1258 25.072 36.72C22.0499 34.2206 20.1513 30.6177 19.7979 26.712C19.676 25.4552 19.7164 23.8523 19.716 22.5588L19.72 16.1036L19.7158 11.3371C19.7153 10.3571 19.6725 8.97487 19.8308 8.05063C19.9945 7.07233 20.4146 6.15497 21.0481 5.39184C22.1241 4.09074 23.4454 3.56204 25.0859 3.40989ZM42.8318 34.4403C47.5718 29.5616 46.3162 25.0043 46.5758 19.191C40.6977 19.0844 34.571 19.1698 28.6764 19.1715L23.7727 19.1737C23.0619 19.1741 22.0667 19.215 21.3844 19.1717C21.4543 25.1012 20.5927 30.0384 25.3406 34.6895C27.6768 36.9935 30.8368 38.2687 34.1178 38.2316C37.4826 38.1891 40.4811 36.8282 42.8318 34.4403ZM21.3728 17.4421C28.47 17.5738 35.8761 17.4686 42.9967 17.4664C44.1169 17.4685 45.4513 17.4359 46.5541 17.4846C46.5027 16.8004 46.5426 15.7972 46.5478 15.0798L46.5588 11.0036C46.5596 9.13736 46.7488 7.3847 45.1577 6.03518C43.7187 4.81468 41.6326 5.08994 39.8268 5.09158L34.9672 5.09132L28.6845 5.09059C27.7993 5.09077 25.8834 4.99938 25.0789 5.13445C23.234 5.32372 21.8993 6.34865 21.5039 8.2371C21.3028 9.19726 21.4234 10.2119 21.3875 11.1851C21.3308 13.187 21.4763 15.4668 21.3728 17.4421Z" fill="#156B6A"/>
<path id="Vector_2" d="M33.8688 8.50147C35.0458 8.61675 34.8662 9.45965 34.8459 10.3919C35.5226 10.4075 36.8834 10.4157 36.8208 11.3706C36.7643 12.2322 35.4139 12.2213 34.872 12.1779C34.8634 12.6201 34.8361 13.0544 34.8102 13.4958C34.5968 13.8591 34.5177 13.936 34.1244 14.0767C33.0029 14.0785 33.1685 13.0261 33.1608 12.2108C32.7837 12.2089 32.2832 12.223 31.9341 12.1004C31.0295 11.7825 30.851 10.9329 31.8453 10.5347L31.8876 10.518C32.2255 10.383 32.778 10.4142 33.1573 10.4128C33.1551 9.58569 32.991 8.85442 33.8688 8.50147Z" fill="#156B6A"/>
<path id="Vector_3" d="M20.5921 39.944L24.3608 39.936C25.0881 39.935 25.8349 39.8997 26.559 39.961C26.8214 39.9832 27.2116 40.0269 27.4054 40.2261C27.8704 40.7043 32.0698 50.6803 32.7495 52.2369C33.0571 52.9413 33.5162 54.3307 33.9672 54.8612C34.2389 54.7502 35.6457 51.3182 35.8649 50.816L39.1835 43.2444C39.5516 42.4045 40.066 40.924 40.5792 40.2649C40.9879 39.74 43.48 39.9669 44.1663 39.9388C48.3324 39.7683 51.2915 39.9285 54.1595 43.4051C57.959 48.0107 59.3517 54.038 59.9027 59.8556C60.0145 61.0638 60.0769 62.3238 60.0625 63.5374C60.0075 64.1777 59.7879 64.5755 59.1098 64.5687C58.2046 64.5596 58.3715 62.8883 58.3322 62.0893C58.0353 56.0529 56.7354 49.4837 52.9087 44.6329C51.6599 43.0498 49.6439 41.6291 47.544 41.662C46.7192 41.6668 45.6618 41.7051 44.8614 41.6312C46.1564 43.4012 46.9029 46.0036 47.1887 48.1474C47.9555 48.3958 48.6149 48.6004 49.3074 49.0332C50.5135 49.7797 51.3691 50.9794 51.6823 52.3628C51.857 53.1355 51.8516 53.9247 51.8468 54.7135C51.8338 56.8492 51.8503 58.9879 51.8378 61.1225C51.837 61.2542 51.7425 61.6515 51.6541 61.7492C51.1828 62.2703 50.1425 62.2034 49.5098 62.068C48.8046 61.9082 48.5966 61.1794 49.0306 60.6413C49.2495 60.3699 49.7622 60.3869 50.063 60.3839L50.0806 56.1371C50.0837 55.2006 50.1495 53.6466 49.9355 52.7937C49.7793 52.1761 49.469 51.6084 49.0336 51.1435C47.6565 49.6781 45.1173 49.6354 43.6844 51.0385C43.1965 51.5185 42.8511 52.1241 42.6863 52.7883C42.4286 53.8062 42.5376 58.9459 42.5197 60.3526C42.9255 60.3782 43.6493 60.5107 43.811 60.8085C44.4239 61.9371 42.4108 62.282 41.7726 62.1593C41.1854 62.1413 40.8307 61.6544 40.8591 61.0282C40.9787 58.3909 40.6563 55.2909 40.9341 52.7112C41.2555 50.9094 42.3597 49.3417 44.1011 48.6318C44.4117 48.5052 45.0503 48.3813 45.2819 48.1719C45.3661 48.0958 45.3918 47.8047 45.3742 47.6855C45.1171 45.9355 44.043 42.8586 42.6813 41.72C42.4002 41.6868 42.0476 41.6735 41.7598 41.6545C41.2638 42.5245 40.2973 44.9055 39.8334 45.964L36.0895 54.5012C35.7078 55.3759 35.1 56.9521 34.5559 57.7626C34.4847 57.8685 34.0645 58.043 33.885 58.0073C33.6009 57.9508 33.2678 57.5628 33.1479 57.3183C32.5436 56.0854 31.9953 54.7197 31.4468 53.461L27.8113 45.1669C27.4531 44.351 26.6225 42.3337 26.1991 41.7026C25.6833 41.4739 24.9163 42.1473 24.5433 42.4635C21.4117 45.1187 21.3997 48.5854 21.1475 52.2698C21.7992 52.4404 22.2882 52.6109 22.8717 52.9636C23.9858 53.6328 24.787 54.7188 25.0976 55.9809C25.4139 57.2473 25.214 58.5875 24.5419 59.7064C23.8479 60.8573 22.7187 61.6793 21.4103 61.9863C20.1435 62.2744 18.8143 62.0516 17.7107 61.3662C16.6102 60.687 15.8247 59.5984 15.5271 58.34C14.8575 55.4212 16.5843 52.9563 19.4534 52.307C19.5056 48.2446 19.9552 44.7163 22.9053 41.6616C22.1678 41.6642 20.452 41.6166 19.8062 41.7203C13.5574 42.7247 10.8676 52.5088 10.1107 57.6992C9.92945 58.9428 9.80659 60.1942 9.74251 61.4492C9.7022 62.2812 9.96119 64.5688 8.86363 64.5877C8.09869 64.6009 7.96628 63.9663 7.97478 63.3505C8.02478 59.7129 8.44586 56.0567 9.39992 52.5408C10.7134 47.8372 13.3563 41.9014 18.3686 40.2694C19.0865 40.0358 19.8488 39.9676 20.5921 39.944ZM20.8183 60.3414C22.5773 60.0612 23.7734 58.4044 23.4854 56.6466C23.1975 54.8889 21.5355 53.7002 19.779 53.9959C18.0335 54.2897 16.8538 55.9392 17.1398 57.686C17.426 59.4328 19.0703 60.6198 20.8183 60.3414Z" fill="#156B6A"/>
<path id="Vector_4" d="M19.8269 54.8174C21.126 54.5479 22.3954 55.3899 22.6525 56.6914C22.9096 57.993 22.0556 59.2543 20.7517 59.499C19.4651 59.7404 18.2243 58.9003 17.9707 57.6162C17.717 56.332 18.5452 55.0833 19.8269 54.8174ZM20.5548 57.7647C20.8813 57.6368 21.0474 57.2728 20.93 56.9424C20.8126 56.612 20.4542 56.4344 20.1201 56.5412C19.8943 56.6133 19.7258 56.8027 19.6804 57.0353C19.635 57.2679 19.7198 57.5068 19.9019 57.6586C20.0839 57.8104 20.3341 57.8511 20.5548 57.7647Z" fill="#156B6A"/>
</g>
<defs>
<filter id="filter0_f_0_123" x="-2.5" y="-2.5" width="73" height="73" filterUnits="userSpaceOnUse" color-interpolation-filters="sRGB">
<feFlood flood-opacity="0" result="BackgroundImageFix"/>
<feBlend mode="normal" in="SourceGraphic" in2="BackgroundImageFix" result="shape"/>
<feGaussianBlur stdDeviation="1.25" result="effect1_foregroundBlur_0_123"/>
</filter>
</defs>
</svg>
