<svg preserveAspectRatio="none" width="100%" height="100%" overflow="visible" style="display: block;" viewBox="0 0 72 72" fill="none" xmlns="http://www.w3.org/2000/svg">
<g id="free-icon-vaccine-11309665 1 [Vectorized]" filter="url(#filter0_f_0_108)">
<g clip-path="url(#clip0_0_108)">
<path id="Vector" d="M59.5021 2.5H60.9315C61.3387 2.70801 61.7735 2.90642 62.1138 3.22023C64.2564 5.19584 66.262 7.33536 68.3406 9.38039C68.9353 9.9654 69.1637 10.4044 69.5 11.1414V12.3815C68.709 14.097 67.4455 15.3451 65.4166 14.4573C64.5793 14.0909 64.0451 13.3492 63.3708 12.7778L56.2462 19.9087C55.5287 20.6259 53.5253 22.5353 52.9579 23.2448C53.9343 24.1613 55.0287 25.0544 55.0599 26.5043C55.0803 27.45 54.7321 28.2695 54.0767 28.934C52.3546 30.6798 50.6116 32.4128 48.8778 34.1461L38.9058 44.1134L33.4134 49.6095C32.6257 50.3973 31.7964 51.2061 31.0194 51.9966C29.3076 53.7383 27.6663 53.5991 25.9062 51.974C24.0484 53.8138 22.8469 55.3857 20.4287 52.9586L9.08255 64.2932L5.82626 67.555C5.26522 68.1168 4.37875 69.0551 3.78215 69.5H2.5V68.1875C3.05427 67.4862 3.98665 66.6064 4.64246 65.9513L8.14738 62.4508L19.054 51.5619C16.6153 49.1476 18.2057 47.9437 20.0376 46.0763C17.07 43.0331 19.9108 41.0458 22.049 38.9063L26.9791 33.9776L37.5463 23.4113C39.3355 21.622 41.1275 19.8202 42.9269 18.0403C43.1582 17.8115 43.8569 17.2145 44.1608 17.1271C44.4809 17.0349 44.9317 16.9535 45.2676 16.9422C46.8794 16.8875 47.7377 18.0165 48.7965 19.0176L54.1269 13.6716C54.9868 12.8089 55.9275 11.797 56.8553 11.0317C57.5779 10.4358 58.923 11.5088 58.1229 12.4385C57.3411 13.3469 56.4351 14.1899 55.5912 15.033L50.1812 20.4349C50.6381 20.8967 51.1061 21.3475 51.5847 21.7869C54.9919 18.2864 58.6308 14.8521 61.9922 11.343C61.1662 10.4875 58.1467 7.6645 57.6832 6.85999C57.2923 6.18526 57.1926 5.38053 57.4072 4.63083C57.7834 3.30935 58.5282 3.05212 59.5021 2.5ZM38.1811 25.5729L26.5247 37.2234L23.021 40.718C20.2205 43.5107 19.9029 43.1945 22.7848 46.0418C23.7913 47.0234 24.7851 48.0179 25.7659 49.025C26.3511 49.6189 26.9369 50.2478 27.5696 50.7872C28.0202 51.1714 28.3842 51.2704 28.9499 51.1625C29.5876 50.6954 30.5243 49.6997 31.1152 49.1072L34.5496 45.6636L46.4688 33.7603C45.7139 32.9491 38.4676 25.6504 38.1811 25.5729ZM47.854 32.3047C48.037 32.2556 52.6333 27.6615 52.8861 27.2272C53.0219 26.9937 53.138 26.6742 53.0775 26.4006C53.0165 26.1251 52.6967 25.7837 52.5071 25.5712C51.8375 24.8206 46.3807 19.316 45.9059 19.0601C45.6636 18.9295 45.3634 18.9302 45.096 18.9348C44.1803 19.2719 40.6833 23.1806 39.6298 24.1029L44.7903 29.2801C45.7365 30.2254 46.8696 31.4166 47.854 32.3047ZM66.7561 12.7301C67.2002 12.5181 67.8431 11.857 67.4341 11.3721C65.8413 9.48377 63.9225 7.81982 62.2139 6.02764C61.6209 5.4135 60.9921 4.59876 60.1496 4.46905C59.816 4.58303 59.5288 4.71215 59.3628 5.0425C59.2584 5.25033 59.2423 5.54171 59.3182 5.76208C59.4406 6.11782 65.7382 12.4463 66.1603 12.6238C66.3492 12.7033 66.5539 12.7172 66.7561 12.7301ZM22.8517 52.1895C23.3131 51.7559 24.1134 51.0066 24.5126 50.5287C24.1066 50.1187 21.7137 47.5886 21.3738 47.5555C20.9553 47.9542 20.0363 48.7481 19.838 49.2392C19.8638 49.7362 22.2964 52.1698 22.8517 52.1895Z" fill="#156B6A"/>
<path id="Vector_2" d="M31.5446 35.7453C31.6211 35.7412 31.9862 35.7246 32.0572 35.7507C32.8586 36.1015 33.7614 37.0239 34.2895 37.7208C34.7934 38.3856 34.5401 38.9442 33.9206 39.3407C33.4984 39.4182 33.3106 39.3595 32.9702 39.0825C32.3844 38.5806 31.7011 38.0056 31.251 37.3755C30.7757 36.71 30.9034 36.1764 31.5446 35.7453Z" fill="#156B6A"/>
<path id="Vector_3" d="M30.321 40.5471C30.8367 40.4512 31.3353 40.7825 31.4467 41.2951C31.5581 41.8077 31.2418 42.316 30.7327 42.4426C30.3896 42.528 30.0273 42.42 29.7869 42.1606C29.5466 41.9013 29.4663 41.5318 29.5774 41.1961C29.6885 40.8605 29.9734 40.6118 30.321 40.5471Z" fill="#156B6A"/>
<path id="Vector_4" d="M27.0708 43.7009C27.5744 43.5237 28.1264 43.7872 28.3054 44.2901C28.4844 44.793 28.2229 45.346 27.7206 45.5267C27.2157 45.7084 26.6594 45.4454 26.4795 44.9399C26.2997 44.4344 26.5647 43.879 27.0708 43.7009Z" fill="#156B6A"/>
<path id="Vector_5" d="M36.4085 34.3923C36.9123 34.2428 37.4432 34.5234 37.6033 35.024C37.7633 35.5247 37.4935 36.0613 36.9964 36.2316C36.6654 36.3449 36.2991 36.2706 36.0387 36.037C35.7783 35.8035 35.6645 35.4474 35.7412 35.1062C35.818 34.7649 36.0732 34.4919 36.4085 34.3923Z" fill="#156B6A"/>
<path id="Vector_6" d="M39.3929 31.3276C39.8784 31.1038 40.4533 31.3179 40.6742 31.8048C40.895 32.2916 40.6774 32.8652 40.1892 33.0831C39.7052 33.2991 39.1376 33.0838 38.9186 32.6011C38.6997 32.1184 38.9116 31.5494 39.3929 31.3276Z" fill="#156B6A"/>
<path id="Vector_7" d="M63.3053 39.7054C62.5726 39.6939 60.6589 39.7977 60.3986 39.341C59.2773 37.3741 62.2051 37.6404 63.2279 37.7199C63.7427 37.7348 64.3998 37.9801 64.722 38.4026C65.4863 39.4047 65.2874 41.1359 65.2543 42.38C65.1986 44.4775 62.9981 44.7217 61.4593 44.5143C61.4406 45.0342 61.4145 45.5684 61.4183 46.0875C62.5119 46.0769 63.6003 46.1049 64.4393 46.9335C64.6977 47.1888 65.0967 47.7311 65.1361 48.0847C65.3595 50.0896 65.2663 52.4663 65.2625 54.4888L65.2633 65.8577C65.2558 66.8753 65.2676 67.8245 64.5283 68.5962C64.0086 69.1386 63.4506 69.2518 63.1357 69.4978H49.4148C46.9372 68.2128 47.3163 67.3045 47.2883 64.7459C47.2826 64.2305 47.2905 63.6912 47.2913 63.1746L47.2975 57.5406L47.2904 52.0412C47.2859 48.776 46.7035 45.9664 51.1179 46.0914C51.1254 45.6168 51.1509 45.0142 51.1299 44.55C50.1196 44.5484 48.7479 44.6877 47.9866 43.94C47.1587 43.1268 47.2773 42.0781 47.2653 41.0218C47.0947 37.2651 49.0686 37.6756 51.9238 37.6881C53.299 37.6941 54.8886 37.7081 56.2821 37.6938C57.8728 37.6775 57.9041 39.4447 56.6143 39.6522C55.8535 39.7746 54.6759 39.6405 53.8791 39.6917C52.3428 39.6753 50.798 39.7126 49.2644 39.6837C49.2638 40.5426 49.2951 41.6637 49.2481 42.5017C53.9213 42.5614 58.6183 42.4665 63.2837 42.5363C63.2555 41.6363 63.2914 40.6146 63.3053 39.7054ZM49.243 63.2625C53.0405 63.3801 56.8936 63.2342 60.6962 63.2923C61.5557 63.3055 62.4449 63.266 63.3011 63.3061C63.2461 61.4244 63.2971 59.3252 63.2961 57.4243C63.2954 55.9411 63.241 53.9935 63.3138 52.5436C60.0351 52.5038 56.7497 52.549 53.4716 52.5315C52.1133 52.5243 50.5895 52.5742 49.251 52.5293C49.2987 54.6534 49.2602 56.8918 49.2644 59.0251C49.2668 60.2321 49.3187 62.109 49.243 63.2625ZM50.5917 65.2764C50.1853 65.2836 49.6531 65.3061 49.2592 65.2812C49.2558 65.7514 49.1978 67.1732 49.5018 67.3041C50.349 67.6689 53.5944 67.5298 54.3967 67.5292L62.0845 67.5275C63.6069 67.4766 63.3014 66.5471 63.3062 65.301C59.6719 65.2032 56.0078 65.3045 52.3704 65.2705C51.7818 65.265 51.1802 65.2656 50.5917 65.2764ZM49.2483 50.5251C52.0184 50.5504 54.7887 50.556 57.5588 50.5418C59.2043 50.5413 61.7098 50.4584 63.2833 50.5528C63.2888 50.0989 63.4026 48.6585 63.0704 48.3472C62.4117 47.7299 60.1996 48.512 59.6776 47.7261C59.3244 47.1945 59.4779 45.2333 59.4338 44.5452C58.0013 44.5501 56.5609 44.5184 55.1307 44.5348C54.5396 44.5501 53.6792 44.5965 53.1106 44.5497C53.0941 44.9325 53.0539 45.8973 53.0914 46.2675C53.4864 50.17 48.8057 46.0625 49.2556 49.8243C49.272 49.9616 49.2552 50.3781 49.2483 50.5251Z" fill="#156B6A"/>
<path id="Vector_8" d="M56.0211 55.3043C56.6976 55.3066 56.8711 55.3896 57.2275 55.9576C57.2552 56.2343 57.251 56.5861 57.2556 56.8693C57.4313 56.883 57.6067 56.8993 57.7819 56.9181C58.1642 56.9605 58.4786 57.0816 58.7233 57.3989C58.8698 57.5868 58.9339 57.826 58.901 58.062C58.7941 58.7849 57.9793 59.0844 57.3283 58.9635C57.2599 59.6916 57.2543 60.1123 56.5938 60.5204C55.4118 60.6954 55.3418 59.9432 55.2166 59.0089C54.6227 58.9872 54.4592 58.9329 53.9462 58.6822C53.1 57.4342 54.0209 56.9561 55.1983 56.9104C55.2675 56.1514 55.279 55.636 56.0211 55.3043Z" fill="#156B6A"/>
</g>
</g>
<defs>
<filter id="filter0_f_0_108" x="0" y="0" width="72" height="72" filterUnits="userSpaceOnUse" color-interpolation-filters="sRGB">
<feFlood flood-opacity="0" result="BackgroundImageFix"/>
<feBlend mode="normal" in="SourceGraphic" in2="BackgroundImageFix" result="shape"/>
<feGaussianBlur stdDeviation="1.25" result="effect1_foregroundBlur_0_108"/>
</filter>
<clipPath id="clip0_0_108">
<rect width="67" height="67" fill="white" transform="translate(2.5 2.5)"/>
</clipPath>
</defs>
</svg>
