<svg xmlns="http://www.w3.org/2000/svg" style="display:none">
  <symbol id="icon-mail" viewBox="0 0 24 24" fill="none" stroke="currentColor" stroke-width="1.5"><rect x="2" y="4" width="20" height="16" rx="2"/><path d="M2 7l10 7 10-7"/></symbol>
  <symbol id="icon-lock" viewBox="0 0 24 24" fill="none" stroke="currentColor" stroke-width="1.5"><rect x="5" y="11" width="14" height="10" rx="2"/><path d="M8 11V7a4 4 0 018 0v4"/></symbol>
  <symbol id="icon-eye-off" viewBox="0 0 24 24" fill="none" stroke="currentColor" stroke-width="1.5"><path d="M3 3l18 18M10.5 10.7a3 3 0 004.6 4.6M7.5 7.8C5.6 9.3 4.2 11.5 3 14c2.5 5 7.5 7 9 7 1.1 0 2.8-.6 4.5-1.8M14 9.5c.9.9 1.5 2.1 1.5 3.5 0 .5-.1 1-.3 1.4"/><path d="M21 14c-1.2 2.5-3.6 5-9 5-1.5 0-3.5-.7-5.5-2"/></symbol>
  <symbol id="icon-eye" viewBox="0 0 24 24" fill="none" stroke="currentColor" stroke-width="1.5"><path d="M2 12s3.5-7 10-7 10 7 10 7-3.5 7-10 7-10-7-10-7z"/><circle cx="12" cy="12" r="3"/></symbol>
  <symbol id="icon-home" viewBox="0 0 24 24" fill="none" stroke="currentColor" stroke-width="1.5"><path d="M3 10.5L12 3l9 7.5V20a1 1 0 01-1 1H4a1 1 0 01-1-1v-9.5z"/><path d="M9 21V12h6v9"/></symbol>
  <symbol id="icon-document" viewBox="0 0 24 24" fill="none" stroke="currentColor" stroke-width="1.5"><path d="M14 2H6a2 2 0 00-2 2v16a2 2 0 002 2h12a2 2 0 002-2V8l-6-6z"/><path d="M14 2v6h6M8 13h8M8 17h8M8 9h2"/></symbol>
  <symbol id="icon-calendar" viewBox="0 0 24 24" fill="none" stroke="currentColor" stroke-width="1.5"><rect x="3" y="4" width="18" height="18" rx="2"/><path d="M16 2v4M8 2v4M3 10h18"/></symbol>
  <symbol id="icon-people" viewBox="0 0 24 24" fill="none" stroke="currentColor" stroke-width="1.5"><path d="M17 21v-2a4 4 0 00-4-4H5a4 4 0 00-4 4v2"/><circle cx="9" cy="7" r="4"/><path d="M23 21v-2a4 4 0 00-3-3.87M16 3.13a4 4 0 010 7.75"/></symbol>
  <symbol id="icon-shield" viewBox="0 0 24 24" fill="none" stroke="currentColor" stroke-width="1.5"><path d="M12 22s8-4 8-10V5l-8-3-8 3v7c0 6 8 10 8 10z"/></symbol>
  <symbol id="icon-sparkles" viewBox="0 0 24 24" fill="none" stroke="currentColor" stroke-width="1.5"><path d="M12 2l2.4 7.4H22l-6 4.6 2.3 7-6.3-4.6L5.7 21l2.3-7-6-4.6h7.6L12 2z"/></symbol>
  <symbol id="icon-key" viewBox="0 0 24 24" fill="none" stroke="currentColor" stroke-width="1.5"><circle cx="8" cy="15" r="4"/><path d="M12 15h9M17 15v3M20 15v2"/></symbol>
  <symbol id="icon-person" viewBox="0 0 24 24" fill="none" stroke="currentColor" stroke-width="1.5"><circle cx="12" cy="8" r="4"/><path d="M4 21v-1a8 8 0 0116 0v1"/></symbol>
  <symbol id="icon-bell" viewBox="0 0 24 24" fill="none" stroke="currentColor" stroke-width="1.5"><path d="M18 8A6 6 0 006 8c0 7-3 9-3 9h18s-3-2-3-9M13.7 21a2 2 0 01-3.4 0"/></symbol>
  <symbol id="icon-settings" viewBox="0 0 24 24" fill="none" stroke="currentColor" stroke-width="1.5"><circle cx="12" cy="12" r="3"/><path d="M12 1v2M12 21v2M4.2 4.2l1.4 1.4M18.4 18.4l1.4 1.4M1 12h2M21 12h2M4.2 19.8l1.4-1.4M18.4 5.6l1.4-1.4"/></symbol>
  <symbol id="icon-help" viewBox="0 0 24 24" fill="none" stroke="currentColor" stroke-width="1.5"><circle cx="12" cy="12" r="10"/><path d="M9.1 9a3 3 0 015.8 1c0 2-3 2-3 4M12 17h.01"/></symbol>
  <symbol id="icon-logout" viewBox="0 0 24 24" fill="none" stroke="currentColor" stroke-width="1.5"><path d="M9 21H5a2 2 0 01-2-2V5a2 2 0 012-2h4M16 17l5-5-5-5M21 12H9"/></symbol>
  <symbol id="icon-chevron-right" viewBox="0 0 24 24" fill="none" stroke="currentColor" stroke-width="2"><path d="M9 18l6-6-6-6"/></symbol>
  <symbol id="icon-arrow-back" viewBox="0 0 24 24" fill="none" stroke="currentColor" stroke-width="1.5"><path d="M19 12H5M12 19l-7-7 7-7"/></symbol>
  <symbol id="icon-close" viewBox="0 0 24 24" fill="none" stroke="currentColor" stroke-width="2"><path d="M18 6L6 18M6 6l12 12"/></symbol>
  <symbol id="icon-upload" viewBox="0 0 24 24" fill="none" stroke="currentColor" stroke-width="1.5"><path d="M12 3v12M7 8l5-5 5 5M5 21h14"/></symbol>
  <symbol id="icon-time" viewBox="0 0 24 24" fill="none" stroke="currentColor" stroke-width="1.5"><circle cx="12" cy="12" r="10"/><path d="M12 6v6l4 2"/></symbol>
  <symbol id="icon-search" viewBox="0 0 24 24" fill="none" stroke="currentColor" stroke-width="1.5"><circle cx="11" cy="11" r="8"/><path d="M21 21l-4.35-4.35"/></symbol>
  <symbol id="icon-list" viewBox="0 0 24 24" fill="none" stroke="currentColor" stroke-width="1.5"><path d="M8 6h13M8 12h13M8 18h13M3 6h.01M3 12h.01M3 18h.01"/></symbol>
  <symbol id="icon-grid" viewBox="0 0 24 24" fill="none" stroke="currentColor" stroke-width="1.5"><rect x="3" y="3" width="7" height="7"/><rect x="14" y="3" width="7" height="7"/><rect x="3" y="14" width="7" height="7"/><rect x="14" y="14" width="7" height="7"/></symbol>
  <symbol id="icon-plus" viewBox="0 0 24 24" fill="none" stroke="currentColor" stroke-width="2"><path d="M12 5v14M5 12h14"/></symbol>
  <symbol id="icon-device" viewBox="0 0 24 24" fill="none" stroke="currentColor" stroke-width="1.5"><rect x="2" y="3" width="20" height="14" rx="2"/><path d="M8 21h8M12 17v4"/></symbol>
  <symbol id="icon-phone" viewBox="0 0 24 24" fill="none" stroke="currentColor" stroke-width="1.5"><rect x="5" y="2" width="14" height="20" rx="2"/><path d="M12 18h.01"/></symbol>
  <symbol id="icon-share" viewBox="0 0 24 24" fill="none" stroke="currentColor" stroke-width="1.5"><circle cx="18" cy="5" r="3"/><circle cx="6" cy="12" r="3"/><circle cx="18" cy="19" r="3"/><path d="M8.6 13.5l6.8 3.9M15.4 6.6l-6.8 3.9"/></symbol>
  <symbol id="icon-map-pin" viewBox="0 0 24 24" fill="none" stroke="currentColor" stroke-width="1.5"><path d="M12 21s7-4.35 7-10a7 7 0 10-14 0c0 5.65 7 10 7 10z"/><circle cx="12" cy="11" r="2.5"/></symbol>
  <symbol id="icon-handset" viewBox="0 0 24 24" fill="none" stroke="currentColor" stroke-width="1.5"><path d="M22 16.92v3a2 2 0 01-2.18 2 19.79 19.79 0 01-8.63-3.07 19.5 19.5 0 01-6-6 19.79 19.79 0 01-3.07-8.67A2 2 0 014.11 2h3a2 2 0 012 1.72c.127.96.361 1.903.7 2.81a2 2 0 01-.45 2.11L8.09 9.91a16 16 0 006 6l1.27-1.27a2 2 0 012.11-.45c.907.339 1.85.573 2.81.7A2 2 0 0122 16.92z"/></symbol>
</svg>
