<svg preserveAspectRatio="none" width="100%" height="100%" overflow="visible" style="display: block;" viewBox="0 0 67 71.9991" fill="none" xmlns="http://www.w3.org/2000/svg">
<g id="free-icon-medical-prescription-1683240 1 [Vectorized]" filter="url(#filter0_f_0_90)">
<g clip-path="url(#clip0_0_90)">
<path id="Vector" d="M21.6595 2.5H36.4821L36.5132 2.51319C36.7598 2.6157 37.0513 2.68115 37.2741 2.78357C37.983 3.11551 38.5467 3.69432 38.8595 4.41171C39.0584 4.8777 39.1248 5.3568 39.1307 5.85962C39.5743 5.83325 40.1327 5.85988 40.5914 5.86034L43.5308 5.86073L46.7006 5.85955C47.612 5.8586 48.7073 5.81297 49.5847 6.00307C50.5105 6.20649 51.368 6.6453 52.0746 7.27709C53.2242 8.29727 53.888 9.77758 53.9103 11.3045C53.926 12.3726 53.9152 13.4502 53.9152 14.5188L53.9161 21.0231C53.9161 21.3934 53.888 23.4364 53.9541 23.6428C54.0542 23.5711 54.2868 23.0012 54.3555 22.846C54.6964 22.0741 55.0445 21.3055 55.3998 20.5402C55.935 19.3967 56.1944 18.4451 57.5383 18.0164C58.8338 17.6032 59.6753 18.2317 60.8232 18.7264C61.0836 18.8386 61.3486 18.9752 61.5845 19.143C61.8364 19.3204 62.0559 19.5401 62.2329 19.7922C63.1928 21.1601 62.548 22.3396 61.9512 23.6465L60.9731 25.7855L55.9965 36.6785L54.6346 39.6572C54.4203 40.1247 54.1278 40.6249 53.9849 41.1146C53.8275 41.6531 53.9161 44.4329 53.9165 45.1726L53.9152 58.411L53.9161 61.9949C53.9171 63.011 53.9783 64.4004 53.7385 65.3452C53.4019 66.6525 52.5994 67.7923 51.4825 68.5503C51.0546 68.8414 50.5691 69.092 50.0725 69.2478C49.8641 69.3129 49.3217 69.4074 49.1624 69.5H9.07261C8.93491 69.4316 8.28902 69.2923 8.10654 69.2353C7.21875 68.9582 6.45921 68.4662 5.81784 67.8047C5.0159 66.9885 4.49845 65.9354 4.34233 64.8018C4.24851 64.0844 4.27291 63.1625 4.27275 62.4264L4.27295 59.0214L4.27419 47.5833L4.27396 23.675L4.27334 15.8934C4.27272 14.464 4.2773 13.0316 4.27576 11.6026C4.27403 9.98169 4.77813 8.54093 5.96849 7.3946C6.67199 6.71907 7.54436 6.24529 8.49404 6.02303C9.35713 5.82154 10.2191 5.85782 11.0981 5.85883L13.2729 5.8608C15.1567 5.8604 17.1701 5.82232 19.0439 5.86642C19.0662 4.55082 19.65 3.37796 20.8747 2.79095C21.1191 2.67381 21.4044 2.62014 21.6595 2.5ZM19.0578 7.86026C17.5974 7.84073 16.137 7.83497 14.6765 7.84296C13.6644 7.84299 12.5748 7.82293 11.5678 7.8476C11.3091 7.85509 11.0178 7.87047 10.762 7.85637L10.7568 39.6232L10.7569 49.0696L10.757 52.0928C10.757 52.5733 10.7642 53.0588 10.7567 53.5397C10.7425 54.4538 9.74074 54.8925 9.0727 54.2781C8.8331 54.0576 8.82031 53.7426 8.79954 53.437C8.7889 52.6214 8.79613 51.7937 8.79715 50.9765L8.79796 46.3657L8.79793 32.1296L8.79806 16.1844L8.79819 10.9364C8.79823 10.0094 8.77654 8.98657 8.80693 8.06754L8.81036 7.97447C7.25742 8.48387 6.27784 9.68032 6.24431 11.3501C6.22102 12.5091 6.23629 13.6724 6.23662 14.832L6.2377 21.3988L6.23793 41.4454L6.23809 56.4219L6.238 61.0648C6.23793 62.0665 6.14371 64.2624 6.42054 65.1005C6.71956 66.0015 7.36617 66.7454 8.21652 67.1671C9.28996 67.7 11.3111 67.5361 12.5455 67.5358H18.1344L35.8971 67.5371C36.0866 66.7788 36.2619 66.0172 36.4229 65.2523C35.7205 65.3164 34.4289 65.284 33.6977 65.2857L28.6903 65.3053L13.2899 65.4178C11.941 65.4254 10.7577 65.5651 9.69687 64.5332C9.02615 63.8809 8.7979 63.0944 8.79528 62.1797L8.79672 59.1562C8.79525 58.5729 8.75367 57.8352 8.84828 57.263C9.01738 56.2403 10.5991 56.3313 10.7411 57.3481C10.7915 57.671 10.7606 58.059 10.7587 58.3891L10.754 60.985C10.7537 61.4548 10.7373 61.9344 10.7736 62.4022C10.819 62.9868 11.1921 63.401 11.7914 63.4183C12.612 63.4422 13.4348 63.4177 14.2557 63.4128L19.0628 63.3889L30.5417 63.3107C32.6382 63.2956 34.7842 63.2596 36.8776 63.2776C37.1599 61.8915 37.4946 60.369 37.8761 59.0061C38.0462 58.3985 38.5088 57.5175 38.7823 56.9195L40.2705 53.6637L45.2245 42.8184L46.4451 40.1473C46.7032 39.5829 47.3058 38.4058 47.3987 37.852C47.4317 37.6544 47.418 36.509 47.418 36.2382L47.4157 33.2784L47.4151 23.3795V20.708C47.4151 20.3121 47.3846 19.7979 47.4357 19.4124C47.5642 18.4477 48.8179 18.2748 49.2752 19.1002C49.3586 19.2442 49.3685 19.5112 49.3714 19.6772C49.3842 20.3976 49.3783 21.12 49.3779 21.8407L49.376 25.8284C49.376 28.403 49.4277 31.1598 49.3753 33.7216L51.0971 29.9644C51.3179 29.4807 51.7704 28.5575 51.9097 28.0824C51.9775 27.8521 51.9526 26.6061 51.9526 26.2946L51.951 22.8363L51.952 15.2864C51.952 13.9649 51.9605 12.6311 51.9412 11.3096C51.9359 10.9483 51.8597 10.5218 51.7354 10.1816C51.42 9.29952 50.7647 8.58048 49.9155 8.18509C49.7313 8.10114 49.5546 8.04396 49.3737 7.96855C49.3943 8.54626 49.3773 9.18364 49.3763 9.76574L49.3773 12.819L49.3783 14.6315C49.3783 15.1627 49.4784 15.8823 49.1077 16.2817C48.7099 16.7109 48.125 16.7184 47.7036 16.3163C47.3228 15.9495 47.4079 15.2204 47.4111 14.7237L47.4183 13.1253C47.4183 11.4068 47.3843 9.60066 47.418 7.89052L47.4187 7.85787C45.4309 7.83831 43.4428 7.83334 41.4547 7.84296L40.049 7.84947C39.7902 7.85182 39.3724 7.87315 39.1346 7.82951C39.0976 8.89945 38.9403 9.70351 38.1208 10.4778C37.6595 10.9161 37.0781 11.2075 36.4507 11.3149C35.9835 11.3962 35.0623 11.3734 34.5499 11.3735L31.468 11.3729L25.5494 11.373C24.4916 11.3734 23.4341 11.3737 22.3764 11.3686C21.0603 11.3623 19.9018 10.693 19.3432 9.48226C19.0974 8.9496 19.0843 8.43663 19.0578 7.86026ZM59.5313 23.4333L59.8303 23.5646C59.9785 23.2316 60.2069 22.6924 60.3656 22.3948C60.9734 21.2534 60.8854 20.8017 59.6337 20.3423C59.1237 20.1551 58.8538 19.8695 58.2352 19.8828C57.7353 19.9875 57.5724 20.4887 57.3826 20.9103C57.1889 21.3395 56.9884 21.7777 56.8078 22.2118C57.4909 22.4508 58.8142 23.1051 59.5313 23.4333ZM55.9854 24.0035C55.7999 24.4018 55.6075 24.8032 55.4394 25.2087C56.4342 25.5846 57.4968 26.1914 58.4593 26.5678C58.5751 26.3141 58.9555 25.578 58.9228 25.3597C58.6945 25.1889 56.2713 24.0675 55.9854 24.0035ZM47.3853 55.5883C47.2348 55.8056 46.8272 56.7461 46.6901 57.0464L45.2807 60.1354C45.0687 60.6003 44.8011 61.1859 44.5901 61.6376C44.456 61.9252 43.5966 63.1235 43.594 63.1975L43.6159 63.2273L45.3858 63.2256C45.9144 63.2237 46.6836 63.3015 47.0869 62.8972C47.2109 62.7728 47.3493 62.5834 47.3755 62.4061C47.4337 61.8974 47.417 61.338 47.4173 60.8237L47.4183 58.0953L47.4193 56.4651C47.4203 56.3234 47.452 55.6551 47.3853 55.5883ZM37.9703 67.4678C38.2912 66.9967 38.6756 66.4742 39.0208 66.0165C39.8825 64.8336 40.843 63.503 41.7345 62.3508C40.9444 61.9687 40.1448 61.6069 39.3361 61.2657C39.0492 62.6862 38.6792 64.125 38.3815 65.5454C38.2709 66.0734 38.037 66.9518 37.9703 67.4678ZM51.896 45.6744C51.3523 46.7854 50.8459 47.9884 50.3149 49.1124C50.1497 49.4618 49.4489 50.9445 49.4058 51.2252C49.3492 51.5925 49.3766 52.996 49.3776 53.4236L49.3779 58.5749C49.3779 59.5985 49.4869 62.3233 49.2209 63.1209C48.9265 64.0029 48.1799 64.724 47.3081 65.0298C46.5439 65.2984 44.8191 65.2032 43.9574 65.2072C43.3326 65.2101 42.6972 65.2379 42.0737 65.2147C41.5853 65.8248 41.1358 66.4713 40.6686 67.0977C40.5816 67.2139 40.4726 67.35 40.3994 67.4733L40.4425 67.5335L45.8771 67.5355C46.1827 67.5351 46.4915 67.5351 46.7971 67.5358C48.3177 67.5387 49.7156 67.6984 50.8769 66.5066C51.7635 65.5968 51.9434 64.8313 51.9503 63.5897L51.9513 52.3175L51.9526 48.0734C51.9526 47.7407 51.9915 45.8056 51.896 45.6744ZM22.3806 4.47718C21.114 4.56691 21.0101 5.19572 21.027 6.31704C21.0364 6.94052 21.01 7.57639 21.0421 8.2054C21.1164 9.66089 22.7573 9.37882 23.7751 9.37777L26.6821 9.37483L35.8703 9.37414C37.3984 9.26864 37.1148 8.09751 37.1648 7.05211C37.3003 4.21616 36.6352 4.47026 34.2614 4.47171L31.2509 4.47369L22.3806 4.47718ZM54.611 26.9773C54.2557 27.8542 53.7258 28.9357 53.3253 29.8112L50.9175 35.0805L43.4373 51.4568L41.105 56.5642C40.737 57.3697 40.1573 58.5389 39.8596 59.3319C40.8498 59.7582 41.9075 60.2983 42.8896 60.6915C42.9815 60.4017 43.1768 60.0062 43.3067 59.7225L44.0042 58.2042L46.2612 53.261L53.9878 36.3481L56.3626 31.1514C56.7005 30.414 57.3587 29.0795 57.6286 28.3407C56.6936 27.9609 55.548 27.405 54.611 26.9773Z" fill="#156B6A"/>
<path id="Vector_2" d="M29.6798 22.0853C37.3594 21.9729 43.6783 28.1036 43.7977 35.7831C43.9174 43.4629 37.7925 49.7873 30.113 49.9139C22.4234 50.0409 16.0889 43.9062 15.9692 36.2166C15.8495 28.5267 21.99 22.1979 29.6798 22.0853ZM30.1785 47.9422C36.7761 47.7793 41.9911 42.2973 41.8253 35.7C41.6594 29.1026 36.1751 23.8898 29.578 24.0585C22.9848 24.2272 17.7758 29.7072 17.9416 36.3006C18.1073 42.8937 23.5852 48.1051 30.1785 47.9422Z" fill="#156B6A"/>
<path id="Vector_3" d="M28.6332 26.779C29.1584 26.7277 29.8245 26.7732 30.3597 26.7556C31.1482 26.7297 31.8632 26.8433 32.4435 27.4348C32.7108 27.7073 32.9005 28.0461 32.9934 28.4164C33.1151 28.9029 33.0788 29.7962 33.0785 30.3257C33.0801 31.1485 33.0772 31.9714 33.0696 32.7941C33.8662 32.802 34.6625 32.8043 35.4588 32.8009C36.592 32.7972 37.7767 32.6363 38.5919 33.588C39.2007 34.2986 39.1245 35.0521 39.131 35.9217C39.1392 36.9633 39.2027 37.9271 38.323 38.6602C38.0452 38.8912 37.7151 39.0512 37.3615 39.1254C36.8148 39.2439 35.6397 39.1974 35.0172 39.2017C34.5107 39.2049 33.5692 39.2259 33.0961 39.1853C33.0382 40.1072 33.0961 41.1155 33.0768 42.0443C33.0677 42.4718 33.1024 42.9439 33.0337 43.365C32.9892 43.6486 32.8894 43.9205 32.7405 44.1658C32.3646 44.7825 31.8427 45.0514 31.1677 45.2189C30.8998 45.2523 30.5662 45.2611 30.2939 45.2588C29.2161 45.2506 28.1867 45.4041 27.3522 44.5705C27.0789 44.3022 26.8842 43.9643 26.7891 43.5933C26.6625 43.098 26.7031 42.1408 26.7036 41.5908L26.7029 39.204C26.6626 39.2059 26.6223 39.2072 26.582 39.2076L24.6541 39.1997C24.011 39.201 22.8726 39.2498 22.2934 39.0944C21.9194 38.9949 21.5784 38.7989 21.3047 38.5254C20.4823 37.7089 20.6942 36.8341 20.6609 35.7709C20.6335 34.8961 20.6606 34.0921 21.3229 33.4363C21.595 33.1689 21.9346 32.9804 22.3054 32.891C22.8395 32.7582 23.7009 32.8007 24.2757 32.8009L26.6972 32.8013C26.7181 31.9105 26.6944 31.0066 26.7033 30.1152C26.7081 29.6369 26.6759 29.0104 26.7613 28.55C26.8136 28.2564 26.9264 27.9767 27.0924 27.7289C27.4838 27.1448 27.9677 26.9108 28.6332 26.779ZM30.7858 43.2541C30.8968 43.2393 30.9614 43.2442 31.041 43.168C31.2057 42.7849 31.1161 39.7997 31.1127 39.1876C31.1103 38.7777 31.0597 38.2814 31.1776 37.8842C31.2471 37.6507 31.4423 37.3942 31.6762 37.3075C32.1806 37.12 35.2671 37.2152 36.0326 37.2129C36.2881 37.2119 36.5672 37.2558 36.8184 37.2142C36.9503 37.1926 37.0661 37.1459 37.1315 37.0206C37.2077 36.8743 37.1891 35.0586 37.1011 34.9261C37.0419 34.8369 36.9418 34.812 36.8407 34.7987C36.4298 34.7449 35.9626 34.7889 35.5468 34.7916L33.1393 34.7999C32.4442 34.8023 31.2513 34.9323 31.1472 33.9702C31.0945 33.4833 31.1144 32.9612 31.1151 32.4699L31.1188 29.8581C31.119 29.5579 31.143 29.1626 31.0622 28.8782C31.0144 28.7101 30.3499 28.7551 30.1968 28.7565C29.8206 28.76 29.4377 28.7582 29.0632 28.7835C28.9385 28.7837 28.8485 28.768 28.7456 28.833C28.6231 29.0528 28.6629 29.7448 28.6645 30.0226L28.6702 32.4293C28.6715 32.8687 28.7059 33.339 28.6578 33.7752C28.6362 33.9709 28.5947 34.1891 28.4929 34.3595C28.3761 34.5547 28.1264 34.6749 27.9155 34.7333C27.1942 34.933 22.8769 34.6209 22.6921 34.9005C22.5903 35.0546 22.6035 36.8203 22.6585 37.0143C22.6803 37.0912 22.7117 37.1262 22.784 37.1596C23.0316 37.2738 23.4672 37.2208 23.7387 37.2201L26.2907 37.211C26.7921 37.2097 27.4115 37.1426 27.8992 37.2643C28.1598 37.3294 28.4356 37.4845 28.5578 37.7347C28.7623 38.1532 28.6692 41.3713 28.6682 42.0243C28.6677 42.3348 28.6167 42.7417 28.6837 43.0394C28.7042 43.1307 28.7391 43.1693 28.8239 43.2014C29.1844 43.3378 30.3443 43.2573 30.7858 43.2541Z" fill="#156B6A"/>
</g>
</g>
<defs>
<filter id="filter0_f_0_90" x="-2.5" y="-0.000884056" width="72" height="72" filterUnits="userSpaceOnUse" color-interpolation-filters="sRGB">
<feFlood flood-opacity="0" result="BackgroundImageFix"/>
<feBlend mode="normal" in="SourceGraphic" in2="BackgroundImageFix" result="shape"/>
<feGaussianBlur stdDeviation="1.25" result="effect1_foregroundBlur_0_90"/>
</filter>
<clipPath id="clip0_0_90">
<rect width="67" height="67" fill="white" transform="translate(0 2.49912)"/>
</clipPath>
</defs>
</svg>
